<?xml version="1.0" encoding="UTF-8" standalone="no"?>
<!-- Created with Inkscape (http://www.inkscape.org/) -->

<svg
   width="71.588188mm"
   height="51.658134mm"
   viewBox="0 0 71.588189 51.658135"
   version="1.1"
   id="svg1"
   inkscape:version="1.3.2 (091e20e, 2023-11-25)"
   sodipodi:docname="logo.svg"
   inkscape:export-filename="logo.png"
   inkscape:export-xdpi="121.50615"
   inkscape:export-ydpi="121.50615"
   xmlns:inkscape="http://www.inkscape.org/namespaces/inkscape"
   xmlns:sodipodi="http://sodipodi.sourceforge.net/DTD/sodipodi-0.dtd"
   xmlns:xlink="http://www.w3.org/1999/xlink"
   xmlns="http://www.w3.org/2000/svg"
   xmlns:svg="http://www.w3.org/2000/svg">
  <sodipodi:namedview
     id="namedview1"
     pagecolor="#ffffff"
     bordercolor="#000000"
     borderopacity="0.25"
     inkscape:showpageshadow="2"
     inkscape:pageopacity="0.0"
     inkscape:pagecheckerboard="true"
     inkscape:deskcolor="#d1d1d1"
     inkscape:document-units="mm"
     inkscape:zoom="2.151807"
     inkscape:cx="180.08121"
     inkscape:cy="144.52969"
     inkscape:window-width="1728"
     inkscape:window-height="1051"
     inkscape:window-x="0"
     inkscape:window-y="38"
     inkscape:window-maximized="1"
     inkscape:current-layer="layer1"
     showgrid="false" />
  <defs
     id="defs1">
    <inkscape:path-effect
       effect="bspline"
       id="path-effect129"
       is_visible="true"
       lpeversion="1.3"
       weight="33.333333"
       steps="2"
       helper_size="0"
       apply_no_weight="true"
       apply_with_weight="true"
       only_selected="false"
       uniform="false" />
    <inkscape:path-effect
       effect="bspline"
       id="path-effect131"
       is_visible="true"
       lpeversion="1.3"
       weight="33.333333"
       steps="2"
       helper_size="0"
       apply_no_weight="true"
       apply_with_weight="true"
       only_selected="false"
       uniform="false" />
    <inkscape:path-effect
       effect="bspline"
       id="path-effect133"
       is_visible="true"
       lpeversion="1.3"
       weight="33.333333"
       steps="2"
       helper_size="0"
       apply_no_weight="true"
       apply_with_weight="true"
       only_selected="false"
       uniform="false" />
    <inkscape:path-effect
       effect="bspline"
       id="path-effect135"
       is_visible="true"
       lpeversion="1.3"
       weight="33.333333"
       steps="2"
       helper_size="0"
       apply_no_weight="true"
       apply_with_weight="true"
       only_selected="false"
       uniform="false" />
    <inkscape:path-effect
       effect="bspline"
       id="path-effect137"
       is_visible="true"
       lpeversion="1.3"
       weight="33.333333"
       steps="2"
       helper_size="0"
       apply_no_weight="true"
       apply_with_weight="true"
       only_selected="false"
       uniform="false" />
    <inkscape:path-effect
       effect="bspline"
       id="path-effect139"
       is_visible="true"
       lpeversion="1.3"
       weight="33.333333"
       steps="2"
       helper_size="0"
       apply_no_weight="true"
       apply_with_weight="true"
       only_selected="false"
       uniform="false" />
    <filter
       inkscape:collect="always"
       style="color-interpolation-filters:sRGB"
       id="filter10"
       x="-0.35848798"
       y="-0.215519"
       width="1.716976"
       height="1.431038">
      <feGaussianBlur
         inkscape:collect="always"
         stdDeviation="0.63182391"
         id="feGaussianBlur10" />
    </filter>
    <inkscape:path-effect
       effect="bspline"
       id="path-effect141"
       is_visible="true"
       lpeversion="1.3"
       weight="33.333333"
       steps="2"
       helper_size="0"
       apply_no_weight="true"
       apply_with_weight="true"
       only_selected="false"
       uniform="false" />
    <inkscape:path-effect
       effect="bspline"
       id="path-effect143"
       is_visible="true"
       lpeversion="1.3"
       weight="33.333333"
       steps="2"
       helper_size="0"
       apply_no_weight="true"
       apply_with_weight="true"
       only_selected="false"
       uniform="false" />
    <filter
       inkscape:collect="always"
       style="color-interpolation-filters:sRGB"
       id="filter12"
       x="-0.63206736"
       y="-0.527941"
       width="2.2641347"
       height="2.055882">
      <feGaussianBlur
         inkscape:collect="always"
         stdDeviation="0.93437377"
         id="feGaussianBlur12" />
    </filter>
    <inkscape:path-effect
       effect="bspline"
       id="path-effect145"
       is_visible="true"
       lpeversion="1.3"
       weight="33.333333"
       steps="2"
       helper_size="0"
       apply_no_weight="true"
       apply_with_weight="true"
       only_selected="false"
       uniform="false" />
    <inkscape:path-effect
       effect="bspline"
       id="path-effect147"
       is_visible="true"
       lpeversion="1.3"
       weight="33.333333"
       steps="2"
       helper_size="0"
       apply_no_weight="true"
       apply_with_weight="true"
       only_selected="false"
       uniform="false" />
    <filter
       style="color-interpolation-filters:sRGB"
       inkscape:label="Colorize"
       id="filter169"
       x="-0.059957228"
       y="-0.064379948"
       width="1.1199145"
       height="1.1287599">
      <feComposite
         in2="SourceGraphic"
         operator="arithmetic"
         k1="0"
         k2="1"
         result="composite1"
         id="feComposite168"
         k3="0"
         k4="0" />
      <feColorMatrix
         in="composite1"
         values="1"
         type="saturate"
         result="colormatrix1"
         id="feColorMatrix168" />
      <feFlood
         flood-opacity="1"
         flood-color="rgb(47,158,0)"
         result="flood1"
         id="feFlood168" />
      <feBlend
         in="flood1"
         in2="colormatrix1"
         mode="multiply"
         result="blend1"
         id="feBlend168" />
      <feBlend
         in2="blend1"
         mode="screen"
         result="blend2"
         id="feBlend169" />
      <feColorMatrix
         in="blend2"
         values="1"
         type="saturate"
         result="colormatrix2"
         id="feColorMatrix169" />
      <feComposite
         in="colormatrix2"
         in2="SourceGraphic"
         operator="in"
         result="composite2"
         id="feComposite169" />
      <feGaussianBlur
         stdDeviation="1.1178331"
         id="feGaussianBlur169" />
    </filter>
    <filter
       style="color-interpolation-filters:sRGB"
       inkscape:label="Colorize"
       id="filter105"
       x="-0.097374718"
       y="-0.10443988"
       width="1.1947495"
       height="1.2093125">
      <feComposite
         in2="SourceGraphic"
         operator="arithmetic"
         k1="0"
         k2="1"
         result="composite1"
         id="feComposite104"
         k3="0"
         k4="0" />
      <feColorMatrix
         in="composite1"
         values="1"
         type="saturate"
         result="colormatrix1"
         id="feColorMatrix104" />
      <feFlood
         flood-opacity="1"
         flood-color="rgb(47,158,0)"
         result="flood1"
         id="feFlood104" />
      <feBlend
         in="flood1"
         in2="colormatrix1"
         mode="multiply"
         result="blend1"
         id="feBlend104" />
      <feBlend
         in2="blend1"
         mode="screen"
         result="blend2"
         id="feBlend105" />
      <feColorMatrix
         in="blend2"
         values="1"
         type="saturate"
         result="colormatrix2"
         id="feColorMatrix105" />
      <feComposite
         in="colormatrix2"
         in2="SourceGraphic"
         operator="in"
         result="composite2"
         id="feComposite105" />
    </filter>
    <linearGradient
       inkscape:collect="always"
       xlink:href="#linearGradient24"
       id="linearGradient19"
       x1="93.334702"
       y1="192.07272"
       x2="93.334702"
       y2="135.86957"
       gradientUnits="userSpaceOnUse" />
    <linearGradient
       inkscape:collect="always"
       id="linearGradient24">
      <stop
         style="stop-color:#dda83e;stop-opacity:1"
         offset="0"
         id="stop19" />
      <stop
         style="stop-color:#945d24;stop-opacity:1"
         offset="0.38356218"
         id="stop20" />
      <stop
         style="stop-color:#ededb2;stop-opacity:1"
         offset="0.53592813"
         id="stop21" />
      <stop
         style="stop-color:#e6d281;stop-opacity:1"
         offset="0.59580839"
         id="stop22" />
      <stop
         style="stop-color:#ac782f;stop-opacity:1"
         offset="0.73652691"
         id="stop23" />
      <stop
         style="stop-color:#dfc57b;stop-opacity:1"
         offset="1"
         id="stop24" />
    </linearGradient>
    <linearGradient
       inkscape:collect="always"
       xlink:href="#linearGradient10"
       id="linearGradient5"
       x1="88.279068"
       y1="142.76413"
       x2="88.279068"
       y2="200.15668"
       gradientUnits="userSpaceOnUse" />
    <linearGradient
       inkscape:collect="always"
       id="linearGradient10">
      <stop
         style="stop-color:#dda83e;stop-opacity:1"
         offset="0"
         id="stop5" />
      <stop
         style="stop-color:#945d24;stop-opacity:1"
         offset="0.41236088"
         id="stop6" />
      <stop
         style="stop-color:#ededb2;stop-opacity:1"
         offset="0.54659188"
         id="stop7" />
      <stop
         style="stop-color:#e6d281;stop-opacity:1"
         offset="0.59621763"
         id="stop8" />
      <stop
         style="stop-color:#ac782f;stop-opacity:1"
         offset="0.67474544"
         id="stop9" />
      <stop
         style="stop-color:#dfc57b;stop-opacity:1"
         offset="1"
         id="stop10" />
    </linearGradient>
    <linearGradient
       inkscape:collect="always"
       xlink:href="#linearGradient16"
       id="linearGradient12"
       x1="84.005714"
       y1="180.44012"
       x2="84.005714"
       y2="137.82373"
       gradientUnits="userSpaceOnUse" />
    <linearGradient
       inkscape:collect="always"
       id="linearGradient16">
      <stop
         style="stop-color:#d9a139;stop-opacity:1"
         offset="0"
         id="stop12" />
      <stop
         style="stop-color:#f2e37e;stop-opacity:1"
         offset="0.26568601"
         id="stop13" />
      <stop
         style="stop-color:#d7b769;stop-opacity:1"
         offset="0.36822188"
         id="stop14" />
      <stop
         style="stop-color:#f3f3b3;stop-opacity:1"
         offset="0.4922823"
         id="stop15" />
      <stop
         style="stop-color:#d3ae5e;stop-opacity:1"
         offset="1"
         id="stop16" />
    </linearGradient>
    <clipPath
       clipPathUnits="userSpaceOnUse"
       id="clipPath108">
      <path
         id="path108"
         style="color:#000000;opacity:1;fill:#ff00ff;fill-opacity:1;stroke-width:1;stroke-linecap:round;stroke-linejoin:round;stroke-miterlimit:9;-inkscape-stroke:none;paint-order:stroke fill markers"
         d="m 35.452968,152.45438 c -3.413395,0 -4.853448,3.39669 -4.853448,3.39669 a 1.507995,1.507995 0 0 0 0.737939,2.00195 1.507995,1.507995 0 0 0 2.001943,-0.73846 c 0,0 0.882108,-1.64434 2.113566,-1.64434 1.231461,0 2.11305,1.64434 2.11305,1.64434 a 1.5081458,1.5081458 0 0 0 0.06046,0.11731 l 0.871265,1.52135 0.871265,1.52342 0.241845,0.42272 -0.340032,0.1943 a 0.78287348,0.78287348 0 0 0 -0.04496,1.33067 l 3.785298,2.52077 a 0.63335794,0.63335794 0 0 0 0.983404,-0.56275 L 43.7398,159.64206 a 0.78287348,0.78287348 0 0 0 -1.170472,-0.63562 l -0.341066,0.19533 -0.242361,-0.42323 -0.86868,-1.52342 -0.841293,-1.46968 c -0.153784,-0.33888 -1.600644,-3.33106 -4.822963,-3.33106 z m 10.324436,14.7035 a 1.507995,1.507995 0 0 0 -0.734838,0.2651 1.507995,1.507995 0 0 0 -0.376724,2.09754 c 0,0 0.976082,1.60001 0.349334,2.69545 -0.626771,1.09546 -2.460831,1.03147 -2.460831,1.03146 a 1.5081458,1.5081458 0 0 0 -0.134877,-0.006 h -1.742011 -1.742014 -0.47439 v -0.39223 a 0.78287348,0.78287348 0 0 0 -1.132745,-0.70021 l -4.067453,2.03346 a 0.63335794,0.63335794 0 0 0 0,1.13328 l 4.067453,2.03398 a 0.78287348,0.78287348 0 0 0 1.132745,-0.70021 v -0.39224 h 0.47439 1.742014 1.687751 c 0.407643,0.036 3.67974,0.23548 5.269441,-2.543 1.695662,-2.96369 -0.492469,-5.91435 -0.492469,-5.91435 a 1.507995,1.507995 0 0 0 -1.364776,-0.64203 z M 29.378921,160.2937 a 0.63335794,0.63335794 0 0 0 -0.302308,0.10438 l -3.785298,2.52026 a 0.78287348,0.78287348 0 0 0 0.04496,1.33119 l 0.340548,0.19482 -0.241329,0.42219 -0.871265,1.52342 -0.841809,1.4702 c -0.215211,0.30607 -2.050876,3.05786 -0.451135,5.8539 1.695672,2.96371 5.347477,2.53732 5.347477,2.53732 a 1.507995,1.507995 0 0 0 1.369425,-1.63711 1.507995,1.507995 0 0 0 -1.637109,-1.36684 c 0,0 -1.834079,0.064 -2.460832,-1.03146 -0.626754,-1.09544 0.34985,-2.69545 0.34985,-2.69545 a 1.5081458,1.5081458 0 0 0 0.07028,-0.1111 l 0.871265,-1.52342 0.870746,-1.52136 0.241848,-0.42271 0.340548,0.19482 a 0.78287348,0.78287348 0 0 0 1.170471,-0.63562 l 0.254765,-4.54081 a 0.63335794,0.63335794 0 0 0 -0.681098,-0.66662 z" />
    </clipPath>
    <filter
       inkscape:collect="always"
       style="color-interpolation-filters:sRGB"
       id="filter108"
       x="-0.012597671"
       y="-0.011456471"
       width="1.0251953"
       height="1.0229129">
      <feGaussianBlur
         inkscape:collect="always"
         stdDeviation="0.23271448"
         id="feGaussianBlur108" />
    </filter>
    <filter
       inkscape:collect="always"
       style="color-interpolation-filters:sRGB"
       id="filter20"
       x="-0.1015716"
       y="-0.089319406"
       width="1.2031432"
       height="1.1786388">
      <feGaussianBlur
         inkscape:collect="always"
         stdDeviation="0.6867649"
         id="feGaussianBlur20" />
    </filter>
    <inkscape:path-effect
       effect="bspline"
       id="path-effect149"
       is_visible="true"
       lpeversion="1.3"
       weight="33.333333"
       steps="2"
       helper_size="0"
       apply_no_weight="true"
       apply_with_weight="true"
       only_selected="false"
       uniform="false" />
    <inkscape:path-effect
       effect="bspline"
       id="path-effect151"
       is_visible="true"
       lpeversion="1.3"
       weight="33.333333"
       steps="2"
       helper_size="0"
       apply_no_weight="true"
       apply_with_weight="true"
       only_selected="false"
       uniform="false" />
    <inkscape:path-effect
       effect="bspline"
       id="path-effect159"
       is_visible="true"
       lpeversion="1.3"
       weight="33.333333"
       steps="2"
       helper_size="0"
       apply_no_weight="true"
       apply_with_weight="true"
       only_selected="false"
       uniform="false" />
    <inkscape:path-effect
       effect="bspline"
       id="path-effect161"
       is_visible="true"
       lpeversion="1.3"
       weight="33.333333"
       steps="2"
       helper_size="0"
       apply_no_weight="true"
       apply_with_weight="true"
       only_selected="false"
       uniform="false" />
  </defs>
  <g
     inkscape:label="Layer 1"
     inkscape:groupmode="layer"
     id="layer1"
     transform="translate(-106.62708,-85.725001)">
    <path
       id="path109"
       style="font-variation-settings:normal;display:inline;fill:#f5f4ce;fill-opacity:1;stroke:#000000;stroke-width:1.13771;stroke-linecap:round;stroke-linejoin:round;stroke-miterlimit:4;stroke-dasharray:none;stroke-dashoffset:0;stroke-opacity:1;paint-order:stroke fill markers;stop-color:#000000"
       d="m 136.03798,132.8652 c 0.25648,0.12358 0.53675,0.23598 0.71727,0.46716 0.2394,0.39441 0.48467,0.78996 0.80261,1.12705 0.2159,0.23724 0.42016,0.48913 0.56733,0.77567 0.14535,0.23464 0.24855,0.52498 0.16605,0.80009 -0.0524,0.25116 -0.21293,0.49279 -0.45802,0.58898 -0.25604,0.11657 -0.55087,0.16561 -0.82532,0.0876 -0.29991,-0.0708 -0.62137,-0.14651 -0.84765,-0.37076 -0.26143,-0.23201 -0.49269,-0.49517 -0.72696,-0.7538 -0.18219,-0.22387 -0.37888,-0.43725 -0.54551,-0.67303 -0.18987,-0.28989 -0.26355,-0.6457 -0.23886,-0.98903 0.0478,-0.35682 0.29499,-0.65645 0.5901,-0.84713 0.23474,-0.15355 0.51939,-0.22598 0.79896,-0.21275 z"
       sodipodi:nodetypes="ccccsccccc" />
    <path
       style="font-variation-settings:normal;display:inline;vector-effect:none;fill:#5adaff;fill-opacity:1;stroke:#000000;stroke-width:4.3;stroke-linecap:butt;stroke-linejoin:round;stroke-miterlimit:4;stroke-dasharray:none;stroke-dashoffset:0;stroke-opacity:1;-inkscape-stroke:none;paint-order:stroke fill markers;stop-color:#000000"
       d="m 457.77339,474.78544 c -0.91415,-0.92944 -1.86249,-1.89365 -2.86343,-2.40104 -1.00093,-0.50738 -2.07155,-0.57531 -3.03105,-0.59878 -0.95951,-0.0235 -1.8079,-0.002 -2.64068,-0.35634 -0.83278,-0.35387 -1.64994,-1.0826 -2.20734,-1.81185 -0.55739,-0.72926 -0.85502,-1.45904 -0.8774,-2.34806 -0.0224,-0.88902 0.23048,-1.93727 0.58797,-2.88611 0.35749,-0.94884 0.81962,-1.79826 1.78966,-2.76328 0.97004,-0.96501 2.44801,-2.04564 4.03325,-2.73586 1.58524,-0.69022 3.27775,-0.99002 4.51836,-1.05177 1.24061,-0.0618 2.0293,0.11456 2.90395,0.55133 0.87465,0.43678 1.83523,1.134 2.76265,2.0092 0.92742,0.8752 1.82169,1.92837 2.43933,2.78491 0.61764,0.85654 0.96115,1.52128 1.29968,2.17638"
       id="path110"
       inkscape:path-effect="#path-effect129"
       inkscape:original-d="m 457.77339,474.78544 c -0.91415,-0.92944 -1.8625,-1.89365 -2.79374,-2.84048 -1.07062,-0.0679 -2.14124,-0.13587 -3.21186,-0.20381 -0.84839,0.021 -1.69678,0.042 -2.54518,0.063 -0.81716,-0.72874 -1.63432,-1.45747 -2.45148,-2.1862 -0.29763,-0.72978 -0.59526,-1.45956 -0.89289,-2.18934 0.25286,-1.04826 0.50573,-2.09651 0.75859,-3.14477 0.46212,-0.84942 0.92425,-1.69884 1.38637,-2.54825 1.47796,-1.08063 2.95593,-2.16125 4.4339,-3.24188 1.69251,-0.2998 3.38502,-0.59961 5.07753,-0.89942 0.78871,0.17631 1.5774,0.35262 2.36611,0.52893 0.96059,0.69724 1.92117,1.39446 2.88175,2.09169 0.89426,1.05317 1.78853,2.10634 2.68279,3.1595 0.34102,0.65992 0.68453,1.32466 1.02306,1.97976"
       sodipodi:nodetypes="cssssssssssssc"
       transform="matrix(0.26458333,0,0,0.26458333,-10.74311,-32.85078)" />
    <path
       style="font-variation-settings:normal;display:inline;vector-effect:none;fill:#5adaff;fill-opacity:1;stroke:#000000;stroke-width:4.3;stroke-linecap:butt;stroke-linejoin:round;stroke-miterlimit:4;stroke-dasharray:none;stroke-dashoffset:0;stroke-opacity:1;-inkscape-stroke:none;paint-order:stroke fill markers;stop-color:#000000"
       d="m 562.38741,464.753 c -0.0833,-0.8314 -0.17272,-1.72357 0.0684,-2.53247 0.2411,-0.80891 0.8489,-1.6763 1.54782,-2.41439 0.69892,-0.73809 1.52208,-1.38639 2.70365,-1.99128 1.18157,-0.60488 2.7646,-1.18458 4.08373,-1.44431 1.31912,-0.25973 2.46601,-0.22648 3.55645,0.005 1.09043,0.23174 2.18417,0.68273 3.16422,1.33894 0.98006,0.65621 1.92154,1.55023 2.57286,2.40746 0.65132,0.85723 1.06442,1.78701 1.26551,2.6233 0.2011,0.83629 0.23479,1.70432 -0.24224,2.80961 -0.47703,1.10529 -1.5454,2.5903 -2.40412,3.64381 -0.85872,1.05352 -1.55316,1.73776 -2.19827,2.35988 -0.6451,0.62212 -1.24182,1.18307 -1.83861,1.61087 -0.59679,0.4278 -1.19354,0.72236 -1.79031,1.01694"
       id="path111"
       inkscape:path-effect="#path-effect131"
       inkscape:original-d="m 562.38741,464.753 c -0.0833,-0.8314 -0.17272,-1.72357 -0.25422,-2.5369 0.56371,-0.80448 1.17151,-1.67187 1.75831,-2.5093 0.81104,-0.63875 1.6342,-1.28705 2.45147,-1.93072 1.54587,-0.56609 3.1289,-1.1458 4.63693,-1.69804 1.13246,-0.0444 2.27671,0.0797 3.41391,0.099 1.06996,0.36774 2.24432,0.6232 3.15945,1.30278 0.9068,0.9245 1.94187,1.71996 2.8156,2.67364 0.7001,0.67799 1.07873,1.62309 1.14964,2.58752 0.15901,0.83592 0.16903,1.70487 0.0989,2.54806 -0.98663,1.37138 -2.055,2.85639 -3.08012,4.28127 -0.69232,0.68215 -1.38676,1.36639 -2.08018,2.04961 -0.59679,0.56102 -1.19351,1.12197 -1.7903,1.68298 -0.59679,0.29459 -1.19354,0.58915 -1.79031,0.88373"
       sodipodi:nodetypes="cccccccccccccc"
       transform="matrix(0.26458333,0,0,0.26458333,-10.74311,-32.85078)" />
    <path
       id="path112"
       style="font-variation-settings:normal;display:inline;fill:#f5f4ce;fill-opacity:1;stroke:#000000;stroke-width:1.13771;stroke-linecap:round;stroke-linejoin:round;stroke-miterlimit:4;stroke-dasharray:none;stroke-dashoffset:0;stroke-opacity:1;paint-order:stroke fill markers;stop-color:#000000"
       d="m 111.52901,132.8652 c -0.25648,0.12358 -0.53675,0.23598 -0.71727,0.46716 -0.2394,0.39441 -0.48467,0.78996 -0.80261,1.12705 -0.2159,0.23724 -0.42015,0.48913 -0.56733,0.77567 -0.14535,0.23464 -0.24855,0.52498 -0.16605,0.80009 0.0524,0.25116 0.21294,0.49279 0.45802,0.58898 0.25604,0.11657 0.55087,0.16561 0.82532,0.0876 0.29991,-0.0708 0.62138,-0.14651 0.84766,-0.37076 0.26142,-0.23201 0.49268,-0.49517 0.72695,-0.7538 0.1822,-0.22387 0.37888,-0.43725 0.54551,-0.67303 0.18987,-0.28989 0.26355,-0.6457 0.23886,-0.98903 -0.0478,-0.35682 -0.29499,-0.65645 -0.5901,-0.84713 -0.23474,-0.15355 -0.51939,-0.22598 -0.79896,-0.21275 z"
       sodipodi:nodetypes="ccccsccccc" />
    <path
       style="font-variation-settings:normal;display:inline;fill:#5adaff;fill-opacity:1;stroke:#000000;stroke-width:4.3;stroke-linecap:butt;stroke-linejoin:round;stroke-miterlimit:4;stroke-dasharray:none;stroke-dashoffset:0;stroke-opacity:1;paint-order:stroke fill markers;stop-color:#000000"
       d="m 451.35745,611.32922 c -2.27642,-6.78987 -2.69611,-14.02647 -2.95217,-21.94108 -0.25605,-7.91461 -0.34847,-16.5072 -0.19138,-21.19941 0.15708,-4.69222 0.56367,-5.48402 0.60796,-6.5275 0.0443,-1.04347 -0.27371,-2.33857 -0.99867,-5.61722 -0.72496,-3.27865 -1.85687,-8.54081 -2.04228,-17.65652 -0.18541,-9.11571 0.57568,-22.08493 2.78301,-34.43711 2.20733,-12.35217 5.86089,-24.08728 11.4397,-31.92358 5.57882,-7.83631 13.08287,-11.77379 20.33639,-14.66783 7.25352,-2.89404 14.25652,-4.74463 21.53791,-5.85572 7.2814,-1.11109 14.8412,-1.48266 22.51057,-0.95901 7.66937,0.52365 15.44831,1.94253 22.49861,4.86898 7.0503,2.92645 13.37195,7.36047 19.17527,13.04536 5.80333,5.68489 11.08832,12.62065 13.62984,21.44099 2.54151,8.82035 2.33955,19.52528 1.47021,29.14772 -0.86934,9.62244 -2.40604,18.16238 -3.65227,24.55548 -1.24622,6.39309 -2.20195,10.63933 -2.9451,13.54622 -0.74314,2.9069 -1.27369,4.47447 -1.42204,6.1132 -0.14835,1.63874 0.0855,3.34865 4.7e-4,5.88767 -0.085,2.53903 -0.48898,5.90717 -0.71619,11.25526 -0.22722,5.34809 -0.27771,12.67613 -2.00473,20.70746 -1.72702,8.03132 -5.13056,16.76595 -11.83201,23.39629 -6.70144,6.63035 -16.70078,11.15641 -29.76607,13.1591 -13.06529,2.0027 -29.19651,1.48201 -40.90525,-0.14939 -11.70875,-1.6314 -19.07354,-4.40308 -24.67847,-8.8304 -5.60494,-4.42732 -9.60689,-10.56909 -11.88331,-17.35896 z"
       id="path113"
       inkscape:path-effect="#path-effect133"
       inkscape:original-d="m 449.50072,611.77597 c -0.41969,-7.23662 -0.83938,-14.47322 -1.25907,-21.70983 -0.0924,-8.59261 -0.18484,-17.1852 -0.27726,-25.77781 0.40659,-0.79182 0.81318,-1.58362 1.21977,-2.37544 -0.31801,-1.29513 -0.63601,-2.59023 -0.95402,-3.88535 -1.13191,-5.26218 -2.26382,-10.52434 -3.39573,-15.78652 0.76109,-12.96924 1.52218,-25.93846 2.28327,-38.90769 3.65357,-11.73512 7.30713,-23.47023 10.9607,-35.20535 7.50406,-3.93748 15.00811,-7.87497 22.51216,-11.81245 7.00299,-1.8506 14.00599,-3.70119 21.00898,-5.55179 7.5598,-0.37158 15.1196,-0.74315 22.6794,-1.11473 7.77894,1.41888 15.55788,2.83776 23.33683,4.25664 6.32165,4.43402 12.6433,8.86804 18.96495,13.30206 5.285,6.93576 10.56999,13.87152 15.85499,20.80728 -0.20197,10.70493 -0.40393,21.40986 -0.6059,32.11479 -1.53671,8.53995 -3.07341,17.07989 -4.61012,25.61984 -0.95574,4.24624 -1.91147,8.49248 -2.86721,12.73871 -0.53055,1.56756 -1.0611,3.13513 -1.59165,4.70269 0.23385,1.70991 0.4677,3.41982 0.70156,5.12973 -0.40393,3.36814 -0.80786,6.73628 -1.2118,10.10442 -0.0505,7.32804 -0.10099,14.65608 -0.15149,21.98412 -3.40354,8.73461 -6.80708,17.46924 -10.21062,26.20386 -9.99935,4.52607 -19.99869,9.05213 -29.99804,13.5782 -16.13123,-0.52068 -32.26245,-1.04137 -48.39368,-1.56205 -7.28626,-2.74212 -14.65105,-5.5138 -21.85877,-8.22637 -4.00214,-6.14207 -8.0041,-12.28384 -12.13725,-18.62696 z"
       sodipodi:nodetypes="ssscssssssssssssscsssssscs"
       transform="matrix(0.26458333,0,0,0.26458333,-10.74311,-32.85078)" />
    <rect
       style="display:inline;fill:#c6cdd9;fill-opacity:1;stroke:#000000;stroke-width:0.396875;stroke-linejoin:round;stroke-dasharray:none;stroke-opacity:1;paint-order:normal"
       id="rect113"
       width="2.3729334"
       height="4.3131618"
       x="125.58857"
       y="105.0582"
       ry="0.96120411" />
    <path
       style="font-variation-settings:normal;display:inline;fill:#f5f4ce;fill-opacity:1;stroke:#000000;stroke-width:1.5;stroke-linecap:butt;stroke-linejoin:round;stroke-miterlimit:4;stroke-dasharray:none;stroke-dashoffset:0;stroke-opacity:1;paint-order:normal;stop-color:#000000"
       d="m 527.6585,513.53362 c 0.34334,0.54817 1.03003,1.6445 1.38009,2.86168 0.35006,1.21717 0.3635,2.55517 0.18,3.67897 -0.1835,1.1238 -0.56392,2.03339 -1.31749,2.77009 -0.75356,0.73669 -1.88025,1.30049 -3.65854,1.59666 -1.7783,0.29617 -4.20819,0.32471 -5.84855,0.62286 -1.64036,0.29815 -2.4912,0.86592 -3.52789,1.22929 -1.03668,0.36337 -2.25921,0.52233 -3.46092,0.48638 -1.20172,-0.036 -2.38261,-0.26684 -3.45185,-0.73238 -1.06924,-0.46555 -2.02683,-1.16577 -2.6116,-2.03668 -0.58476,-0.87092 -0.79672,-1.91255 -0.86295,-2.77551 -0.0662,-0.86296 0.0133,-1.54726 0.27819,-2.41552 0.26495,-0.86825 0.71535,-1.92045 1.21307,-2.86668 0.49772,-0.94623 1.04274,-1.78648 1.74674,-2.60024 0.704,-0.81376 1.56696,-1.60102 2.6873,-2.30313 1.12034,-0.7021 2.49804,-1.31904 3.92117,-1.69753 1.42313,-0.37849 2.89168,-0.51853 4.59536,-0.31447 1.70369,0.20405 3.64252,0.75221 5.08079,1.46756 1.43827,0.71535 2.37598,1.5979 2.84484,2.03917 0.46886,0.44128 0.46889,0.44131 0.81224,0.98948 z"
       id="path114"
       sodipodi:nodetypes="sssssssssssssssssss"
       inkscape:original-d="m 527.31515,512.98545 c 0.68669,1.09634 1.37338,2.19267 2.06007,3.28902 0.0134,1.338 0.0269,2.676 0.0403,4.01401 -0.38043,0.90959 -0.76085,1.81918 -1.14128,2.72877 -1.1267,0.5638 -2.25339,1.1276 -3.38009,1.69141 -2.42989,0.0285 -4.85978,0.0571 -7.28966,0.0856 -0.85084,0.56777 -1.70168,1.13554 -2.55252,1.70331 -1.22253,0.15897 -2.44506,0.31793 -3.66759,0.4769 -1.1809,-0.23088 -2.36179,-0.46176 -3.54269,-0.69264 -0.95758,-0.70021 -1.91517,-1.40043 -2.87275,-2.10064 -0.21195,-1.04162 -0.42391,-2.08325 -0.63586,-3.12487 0.0795,-0.6843 0.15897,-1.3686 0.23845,-2.0529 0.45041,-1.05221 0.90081,-2.10441 1.35122,-3.15662 0.54503,-0.84025 1.09005,-1.6805 1.63508,-2.52075 0.86297,-0.78727 1.72593,-1.57453 2.5889,-2.3618 1.37771,-0.61694 2.75541,-1.23388 4.13312,-1.85082 1.46855,-0.14004 2.9371,-0.28008 4.40565,-0.42012 1.93882,0.54815 3.87765,1.09631 5.81647,1.64446 0.93772,0.88255 1.87543,1.7651 2.81315,2.64765 z"
       inkscape:path-effect="#path-effect135"
       transform="matrix(0.26458333,0,0,0.26458333,-10.74311,-32.85078)" />
    <path
       id="path115"
       style="font-variation-settings:normal;display:inline;fill:#c6cdd9;fill-opacity:1;stroke:#000000;stroke-width:0.396875;stroke-linecap:butt;stroke-linejoin:round;stroke-miterlimit:4;stroke-dasharray:none;stroke-dashoffset:0;stroke-opacity:1;paint-order:normal;stop-color:#000000"
       d="m 128.17224,101.89129 c 0.13609,0.84458 -1.02522,1.59678 -1.86421,1.76386 -0.86155,0.17158 -2.27452,-0.0815 -2.46218,-0.93969 -0.19485,-0.89109 1.01834,-1.7918 1.91599,-1.95372 0.87322,-0.15751 2.26924,0.25353 2.4104,1.12955 z"
       sodipodi:nodetypes="aaaaa" />
    <path
       style="font-variation-settings:normal;display:inline;fill:#c6cdd9;fill-opacity:1;stroke:#000000;stroke-width:0.396875;stroke-linecap:round;stroke-linejoin:round;stroke-miterlimit:4;stroke-dasharray:none;stroke-dashoffset:0;stroke-opacity:1;paint-order:stroke fill markers"
       d="m 126.88442,108.7872 0.0136,-2.56088"
       id="path116"
       sodipodi:nodetypes="cc" />
    <path
       style="font-variation-settings:normal;display:inline;fill:#f5feff;fill-opacity:1;stroke:#000000;stroke-width:1.8;stroke-linecap:butt;stroke-linejoin:round;stroke-miterlimit:4;stroke-dasharray:none;stroke-dashoffset:0;stroke-opacity:1;paint-order:normal"
       d="m 470.25043,471.82923 c 4.82658,-0.80192 10.78597,-0.96669 15.2423,0.10007 4.45632,1.06676 7.40955,3.36504 9.72925,5.90843 2.3197,2.54339 4.00586,5.33189 5.40379,8.86438 1.39793,3.53249 2.50762,7.80897 2.60858,11.88491 0.10095,4.07594 -0.80682,7.95134 -2.08136,10.9927 -1.27454,3.04135 -2.91584,5.24866 -4.79365,7.2335 -1.87782,1.98483 -3.99214,3.74719 -6.26415,5.24457 -2.27201,1.49738 -4.70169,2.72976 -7.43536,3.56987 -2.73367,0.84011 -5.77132,1.28794 -8.20147,1.45066 -2.43016,0.16273 -4.25282,0.0403 -7.06948,-0.76417 -2.81665,-0.80452 -6.62731,-2.29117 -9.59239,-4.36333 -2.96507,-2.07217 -5.08456,-4.72984 -6.69598,-7.92482 -1.61143,-3.19499 -2.71477,-6.92727 -3.24673,-10.7302 -0.53196,-3.80294 -0.49252,-7.67654 0.24097,-11.36517 0.73349,-3.68863 2.16103,-7.1923 3.93365,-9.89836 1.77261,-2.70606 3.89028,-4.6145 6.796,-6.28826 2.90571,-1.67377 6.59945,-3.11285 11.42603,-3.91478 z"
       id="path117"
       inkscape:path-effect="#path-effect137"
       inkscape:original-d="m 469.1176,471.19207 c 5.95941,-0.16477 11.9188,-0.32953 17.87822,-0.49429 2.95323,2.29828 5.90646,4.59655 8.85969,6.89484 1.68617,2.7885 3.37233,5.577 5.0585,8.36551 1.10969,4.27647 2.21938,8.55295 3.32907,12.82943 -0.90778,3.8754 -1.81555,7.7508 -2.72333,11.62621 -1.6413,2.2073 -3.2826,4.41461 -4.9239,6.62192 -2.11433,1.76236 -4.22865,3.52472 -6.34298,5.28709 -2.42969,1.23239 -4.85937,2.46477 -7.28905,3.69716 -3.03766,0.44783 -6.07531,0.89566 -9.11297,1.34349 -1.82265,-0.12238 -3.64531,-0.24477 -5.46796,-0.36715 -3.81066,-1.48665 -7.62132,-2.9733 -11.43198,-4.45995 -2.11949,-2.65768 -4.23898,-5.31535 -6.35848,-7.97303 -1.10334,-3.73229 -2.20669,-7.46457 -3.31004,-11.19686 0.0394,-3.87358 0.0789,-7.74718 0.1183,-11.62076 1.42754,-3.50368 2.85509,-7.00735 4.28264,-10.51102 2.11768,-1.90845 4.23535,-3.81689 6.35303,-5.72533 3.69375,-1.43909 7.38749,-2.87818 11.08124,-4.31726 z"
       sodipodi:nodetypes="ssssssssssssssssss"
       transform="matrix(0.26458333,0,0,0.26458333,-10.74311,-32.85078)" />
    <path
       style="font-variation-settings:normal;display:inline;fill:#000000;fill-opacity:1;stroke:none;stroke-width:2.2;stroke-linecap:butt;stroke-linejoin:round;stroke-miterlimit:4;stroke-dasharray:none;stroke-dashoffset:0;stroke-opacity:1;paint-order:normal"
       d="m 458.46183,494.52264 c -0.14863,-0.59072 -0.4459,-1.77213 -0.48252,-2.71229 -0.0366,-0.94015 0.18742,-1.63901 0.5461,-2.20924 0.35869,-0.57023 0.85203,-1.01181 1.47937,-1.47992 0.62733,-0.46812 1.38865,-0.96276 2.16961,-1.27356 0.78097,-0.3108 1.58156,-0.43775 2.41629,-0.47327 0.83473,-0.0355 1.70359,0.0204 2.46852,0.28866 0.76494,0.26827 1.42595,0.74891 1.9224,1.33194 0.49645,0.58303 0.82835,1.26847 1.07289,1.9425 0.24454,0.67404 0.40174,1.33667 0.46643,2.05676 0.0647,0.72009 0.0369,1.49762 -0.0671,2.2093 -0.10398,0.71168 -0.28412,1.35749 -0.53894,1.90061 -0.25481,0.54312 -0.5843,0.98356 -0.99027,1.34367 -0.40597,0.36012 -0.88842,0.63992 -1.48902,0.87 -0.6006,0.23008 -1.31935,0.41046 -1.95022,0.44817 -0.63086,0.0377 -1.17385,-0.0673 -1.74051,-0.19998 -0.56665,-0.13274 -1.15698,-0.29325 -1.75839,-0.55019 -0.60142,-0.25694 -1.2139,-0.61029 -1.77841,-1.1101 -0.56451,-0.49981 -1.04275,-1.09817 -1.32017,-1.44525 -0.27741,-0.34709 -0.27745,-0.34709 -0.42609,-0.93781 z"
       id="path118"
       inkscape:path-effect="#path-effect139"
       inkscape:original-d="m 458.61047,495.11336 c -0.29727,-1.18144 -0.59454,-2.36285 -0.89181,-3.54429 0.22404,-0.69887 0.44807,-1.39773 0.6721,-2.0966 0.49334,-0.44159 0.98668,-0.88317 1.48002,-1.32475 0.76133,-0.49465 1.52265,-0.98929 2.28398,-1.48394 0.8006,-0.12695 1.60119,-0.2539 2.40179,-0.38085 0.86886,0.0559 1.73772,0.11182 2.60658,0.16773 0.66101,0.48063 1.32202,0.96127 1.98303,1.4419 0.33189,0.68543 0.66379,1.37087 0.99568,2.0563 0.15719,0.66264 0.31438,1.32527 0.47158,1.98791 -0.0278,0.77754 -0.0556,1.55507 -0.0834,2.33261 -0.18014,0.64582 -0.36029,1.29163 -0.54044,1.93744 -0.32948,0.44043 -0.65897,0.88087 -0.98846,1.3213 -0.48245,0.2798 -0.9649,0.5596 -1.44735,0.83939 -0.71875,0.18037 -1.4375,0.36075 -2.15625,0.54112 -0.54298,-0.10495 -1.08597,-0.20991 -1.62895,-0.31486 -0.59033,-0.16052 -1.18066,-0.32103 -1.771,-0.48155 -0.61249,-0.35336 -1.22497,-0.70671 -1.83745,-1.06007 -0.51654,-0.64626 -0.99478,-1.24462 -1.54961,-1.93879 z"
       sodipodi:nodetypes="sssssssssssssssssss"
       transform="matrix(0.26458333,0,0,0.26458333,-10.74311,-32.85078)" />
    <path
       id="path119"
       style="font-variation-settings:normal;display:inline;mix-blend-mode:normal;fill:#f9f9f9;fill-opacity:1;stroke:none;stroke-width:2.2;stroke-linecap:butt;stroke-linejoin:round;stroke-miterlimit:4;stroke-dasharray:none;stroke-dashoffset:0;stroke-opacity:1;paint-order:normal;filter:url(#filter10)"
       sodipodi:type="inkscape:offset"
       inkscape:radius="-0.31040543"
       inkscape:original="M 463.11719 488.71484 C 462.92197 488.72786 462.68677 488.80668 462.51758 488.88477 C 462.34839 488.96285 462.24471 489.04043 462.08203 489.16406 C 461.91935 489.2877 461.69911 489.45647 461.48438 489.63867 C 461.26964 489.82087 461.06107 490.01639 460.82031 490.24414 C 460.57955 490.47189 460.30587 490.7319 460.07812 490.97266 C 459.85038 491.21342 459.66855 491.43502 459.52539 491.67578 C 459.38223 491.91654 459.27862 492.1765 459.22656 492.30664 C 459.17451 492.43678 459.17448 492.43757 459.1875 492.57422 C 459.20052 492.71087 459.22528 492.98448 459.25781 493.17969 C 459.29035 493.37489 459.33012 493.49097 459.4082 493.64062 C 459.48629 493.79028 459.60229 493.97342 459.75195 494.20117 C 459.90162 494.42892 460.08537 494.7026 460.24805 494.94336 C 460.41072 495.18412 460.55281 495.39268 460.70898 495.58789 C 460.86516 495.7831 461.03459 495.96361 461.19727 496.09375 C 461.35994 496.22389 461.51571 496.30275 461.69141 496.3418 C 461.8671 496.38084 462.06258 496.38084 462.21875 496.3418 C 462.37492 496.30276 462.49289 496.22455 462.58398 496.10742 C 462.67508 495.99029 462.73958 495.83456 462.74609 495.67188 C 462.75261 495.50919 462.70046 495.33977 462.57031 495.18359 C 462.44017 495.02742 462.23169 494.88469 462.0625 494.72852 C 461.89331 494.57235 461.76361 494.4029 461.64648 494.2207 C 461.52936 494.03851 461.42574 493.843 461.36719 493.6543 C 461.30863 493.46559 461.29492 493.28442 461.29492 493.11523 C 461.29492 492.94605 461.30865 492.7883 461.40625 492.58008 C 461.50385 492.37185 461.68628 492.11251 461.83594 491.88477 C 461.9856 491.65702 462.10163 491.46214 462.23828 491.27344 C 462.37493 491.08473 462.53069 490.90226 462.71289 490.74609 C 462.89509 490.58993 463.1036 490.45958 463.2793 490.35547 C 463.45499 490.25135 463.59836 490.17313 463.70898 490.08203 C 463.81961 489.99093 463.89716 489.88601 463.94922 489.77539 C 464.00128 489.66477 464.02799 489.54876 464.02148 489.43164 C 464.01498 489.31452 463.97587 489.19785 463.9043 489.09375 C 463.83272 488.98965 463.7278 488.89775 463.59766 488.82617 C 463.46752 488.75459 463.3124 488.70183 463.11719 488.71484 z "
       d="m 463.13867,489.02539 c -0.12874,0.009 -0.34827,0.0751 -0.49023,0.14063 -0.14197,0.0655 -0.21701,0.12305 -0.37891,0.24609 -0.16179,0.12296 -0.37699,0.28725 -0.58398,0.46289 -0.20682,0.17547 -0.41217,0.36655 -0.65235,0.59375 -0.24039,0.2274 -0.51136,0.48517 -0.73047,0.7168 -0.21907,0.2316 -0.38285,0.435 -0.50976,0.64843 -0.12662,0.21295 -0.22509,0.45727 -0.27735,0.58789 -0.0519,0.12978 -0.0325,-0.0134 -0.0195,0.12305 0.0132,0.13861 0.0394,0.40997 0.0684,0.58399 0.0291,0.17442 0.0515,0.23757 0.11914,0.36718 0.0678,0.12997 0.17998,0.30971 0.32813,0.53516 0.14831,0.22568 0.33185,0.4981 0.49414,0.73828 0.16228,0.24019 0.29914,0.44229 0.44531,0.625 0.14608,0.18259 0.30401,0.34868 0.43945,0.45703 0.13496,0.10797 0.23996,0.15923 0.36719,0.1875 0.1281,0.0285 0.28772,0.0262 0.38477,0.002 0.0972,-0.0243 0.1448,-0.0575 0.19726,-0.125 0.0528,-0.0679 0.0922,-0.16713 0.0957,-0.25586 0.004,-0.0879 -0.0179,-0.17465 -0.10352,-0.27735 -0.0853,-0.10237 -0.28716,-0.24734 -0.48047,-0.42578 -0.19332,-0.17845 -0.34064,-0.37212 -0.46679,-0.56836 -0.12671,-0.1971 -0.24317,-0.41284 -0.31446,-0.64258 -0.0712,-0.22932 -0.0859,-0.4449 -0.0859,-0.63086 0,-0.18597 0.0222,-0.41337 0.14063,-0.66601 0.11865,-0.25314 0.3057,-0.513 0.45117,-0.73438 0.14547,-0.22137 0.26292,-0.41972 0.41016,-0.62304 0.14662,-0.20248 0.31885,-0.405 0.52539,-0.58203 0.20624,-0.17677 0.42858,-0.31475 0.60937,-0.42188 0.18075,-0.10712 0.3143,-0.18323 0.39063,-0.24609 0.0753,-0.062 0.12256,-0.12764 0.15625,-0.19922 0.0339,-0.072 0.0462,-0.13456 0.043,-0.19336 -0.003,-0.0597 -0.0224,-0.12131 -0.0625,-0.17969 -0.0397,-0.0577 -0.10761,-0.12041 -0.20117,-0.17187 -0.0953,-0.0524 -0.17983,-0.0808 -0.3086,-0.0723 z"
       transform="matrix(0.26458333,0,0,0.26458333,-10.74311,-32.85078)" />
    <path
       style="font-variation-settings:normal;display:inline;fill:#ffffff;fill-opacity:1;stroke:#000000;stroke-width:3.5;stroke-linecap:butt;stroke-linejoin:round;stroke-miterlimit:4;stroke-dasharray:none;stroke-dashoffset:0;stroke-opacity:1;paint-order:stroke fill markers;stop-color:#000000"
       d="m 530.91592,501.27672 c -0.35627,-2.96063 -0.51522,-6.46517 -0.29773,-9.75511 0.21749,-3.28994 0.81141,-6.36528 1.90031,-9.12061 1.0889,-2.75533 2.67276,-5.19062 4.81791,-7.13699 2.14516,-1.94637 4.85159,-3.40379 7.23937,-4.39354 2.38779,-0.98975 4.4569,-1.51182 6.66117,-2.02104 2.20427,-0.50923 4.54368,-1.00561 8.27983,-0.59249 3.73614,0.41312 8.86901,1.73575 13.04444,4.23469 4.17543,2.49894 7.39339,6.17415 9.30548,10.54577 1.9121,4.37162 2.48222,9.13783 1.94786,14.28555 -0.53436,5.14772 -1.93579,9.18198 -5.28875,13.24108 -3.35295,4.05911 -7.60038,6.73361 -12.30605,8.48717 -4.70567,1.75356 -9.2464,2.2864 -14.22788,1.64535 -4.98147,-0.64105 -10.03761,-2.42196 -13.3448,-4.55339 -3.30719,-2.13143 -4.76937,-4.56111 -5.79533,-7.0251 -1.02596,-2.46399 -1.57955,-4.88071 -1.93583,-7.84134 z"
       id="path120"
       inkscape:path-effect="#path-effect141"
       inkscape:original-d="m 530.7186,501.82062 c -0.15895,-3.50453 -0.3179,-7.00907 -0.47685,-10.5136 0.59393,-3.07535 1.18786,-6.15069 1.78178,-9.22604 1.58387,-2.43531 3.16773,-4.8706 4.75159,-7.3059 2.70645,-1.45744 5.41288,-2.91486 8.11933,-4.3723 2.06912,-0.52206 4.13823,-1.04413 6.20735,-1.56619 2.33942,-0.49639 4.67883,-0.99278 7.01825,-1.48916 5.13287,1.32263 10.26574,2.64526 15.39863,3.9679 3.21797,3.67524 6.43593,7.35045 9.65389,11.02567 0.60622,5.06802 1.17635,9.83423 1.81868,15.20408 -1.71105,4.92559 -3.11248,8.95985 -4.84464,13.9462 -4.97375,3.13186 -9.22118,5.80636 -13.91098,8.75942 -4.72154,0.55406 -9.26227,1.0869 -14.00513,1.64346 -5.22009,-1.83866 -10.27623,-3.61957 -15.41434,-5.42935 -1.47627,-2.45308 -2.93845,-4.88276 -4.42881,-7.35926 -0.56156,-2.45148 -1.11515,-4.8682 -1.66875,-7.28493 z"
       sodipodi:nodetypes="sssssssssssssscs"
       transform="matrix(0.26458333,0,0,0.26458333,-10.74311,-32.85078)" />
    <path
       style="font-variation-settings:normal;display:inline;vector-effect:none;fill:#000000;fill-opacity:1;stroke:none;stroke-width:1.8;stroke-linecap:butt;stroke-linejoin:round;stroke-miterlimit:4;stroke-dasharray:none;stroke-dashoffset:0;stroke-opacity:1;-inkscape-stroke:none;paint-order:normal"
       d="m 562.43739,500.03076 c 0.31051,0.0402 0.93155,0.12073 1.54522,0.0997 0.61368,-0.0211 1.21999,-0.14368 1.76668,-0.37568 0.54668,-0.23201 1.03372,-0.57339 1.50553,-1.01414 0.47181,-0.44074 0.92838,-0.98082 1.31153,-1.56262 0.38314,-0.58179 0.69288,-1.2053 0.99273,-1.89888 0.29986,-0.69358 0.58983,-1.45722 0.72804,-2.3443 0.1382,-0.88709 0.12466,-1.89609 -0.19278,-2.86822 -0.31744,-0.97212 -0.92377,-1.88191 -1.79766,-2.82139 -0.8739,-0.93948 -1.91979,-1.81093 -3.15618,-1.96684 -1.2364,-0.15591 -2.54087,0.43542 -3.45187,0.9834 -0.911,0.54798 -1.40119,1.04021 -1.872,1.62339 -0.47082,0.58317 -0.92225,1.25729 -1.19896,2.08034 -0.2767,0.82305 -0.37021,1.71429 -0.31403,2.81476 0.0562,1.10047 0.27062,2.32847 0.69417,3.38232 0.42355,1.05385 1.05621,1.93352 1.61257,2.54249 0.55636,0.60896 1.0364,0.94721 1.27643,1.11634 0.24003,0.16913 0.24006,0.16913 0.55058,0.20937 z"
       id="path121"
       inkscape:path-effect="#path-effect143"
       inkscape:original-d="m 562.12687,499.99052 c 0.62103,0.0805 1.24207,0.16097 1.8631,0.24145 0.60632,-0.12261 1.21263,-0.24523 1.81895,-0.36784 0.48705,-0.3414 0.97409,-0.68278 1.46114,-1.02418 0.45657,-0.54009 0.91314,-1.08017 1.3697,-1.62025 0.30973,-0.62351 0.61947,-1.24702 0.9292,-1.87053 0.28998,-0.76365 0.57995,-1.52729 0.86993,-2.29094 -0.0136,-1.01052 -0.0271,-2.01952 -0.0407,-3.03155 -0.62129,-0.93222 -1.22762,-1.84201 -1.86107,-2.79249 -1.11434,-0.92848 -2.16023,-1.79992 -3.27391,-2.72786 -1.35911,0.61611 -2.66358,1.20744 -3.99539,1.81117 -0.49019,0.49223 -0.98038,0.98446 -1.47057,1.47669 -0.45144,0.67412 -0.90287,1.34824 -1.35431,2.02236 -0.38613,0.94217 -0.35577,1.8464 -0.29755,2.83615 0.21443,1.22801 0.42887,2.45601 0.6433,3.68403 0.63267,0.87968 1.26533,1.75935 1.898,2.63903 0.48005,0.33825 0.96009,0.6765 1.44015,1.01476 z"
       sodipodi:nodetypes="ssssssssssssssssss"
       transform="matrix(0.26458333,0,0,0.26458333,-10.74311,-32.85078)" />
    <path
       id="path122"
       style="font-variation-settings:normal;display:inline;vector-effect:none;fill:#f9f9f9;fill-opacity:1;stroke:none;stroke-width:2.2;stroke-linecap:butt;stroke-linejoin:round;stroke-miterlimit:4;stroke-dasharray:none;stroke-dashoffset:0;stroke-opacity:1;-inkscape-stroke:none;paint-order:normal;filter:url(#filter12);stop-color:#000000"
       sodipodi:type="inkscape:offset"
       inkscape:radius="-0.13932437"
       inkscape:original="M 562.69727 489.23242 C 562.63329 489.24041 562.22959 489.4415 562.01172 489.54688 C 561.79385 489.65225 561.55219 489.76649 561.3457 489.91602 C 561.13922 490.06554 560.96801 490.25087 560.83984 490.40039 C 560.71168 490.54992 560.6269 490.66393 560.50586 490.86328 C 560.38482 491.06263 560.22847 491.348 560.10742 491.63281 C 559.98638 491.91762 559.90026 492.20177 559.87891 492.5293 C 559.85755 492.85682 559.90052 493.22699 559.92188 493.41211 C 559.94323 493.59723 559.94329 493.59652 560.04297 493.625 C 560.14265 493.65348 560.34152 493.71105 560.51953 493.73242 C 560.69754 493.75379 560.85438 493.74055 561.00391 493.68359 C 561.15343 493.62663 561.29452 493.52604 561.45117 493.41211 C 561.60782 493.29818 561.77972 493.16962 561.96484 493.00586 C 562.14997 492.84209 562.34946 492.64261 562.54883 492.42188 C 562.7482 492.20114 562.94687 491.9597 563.10352 491.74609 C 563.26016 491.53249 563.37493 491.34736 563.47461 491.18359 C 563.57429 491.01983 563.65902 490.8779 563.6875 490.70703 C 563.71598 490.53616 563.68794 490.33597 563.65234 490.11523 C 563.61675 489.8945 563.57486 489.65274 563.46094 489.49609 C 563.34702 489.33945 563.16092 489.26802 563.06836 489.23242 C 562.9758 489.19682 562.76124 489.22443 562.69727 489.23242 z "
       d="m 562.87891,489.35547 c -0.0661,0.003 -0.13151,0.0116 -0.16407,0.0156 0.0187,-0.002 0.006,-0.001 -0.008,0.004 -0.0138,0.005 -0.0349,0.0132 -0.0586,0.0234 -0.0475,0.0204 -0.10848,0.0482 -0.17578,0.0801 -0.13461,0.0637 -0.29055,0.14023 -0.40039,0.19335 -0.21869,0.10577 -0.45257,0.21841 -0.64454,0.35743 -0.19181,0.1389 -0.35712,0.31477 -0.48242,0.46093 -0.12514,0.14602 -0.20202,0.25049 -0.32031,0.44532 -0.11805,0.19442 -0.27141,0.47605 -0.38867,0.75195 -0.1173,0.276 -0.19864,0.54308 -0.21875,0.85156 -0.0201,0.30861 0.0216,0.67218 0.043,0.85742 0.009,0.0763 0.0147,0.0918 0.0117,0.0918 0.005,0.002 0.003,1e-4 0.01,0.002 0.1003,0.0287 0.29428,0.0842 0.45508,0.10352 0.16163,0.0194 0.29201,0.007 0.41797,-0.041 0.12577,-0.0479 0.25805,-0.14043 0.41406,-0.2539 0.15554,-0.11312 0.32374,-0.23711 0.50391,-0.39649 0.18028,-0.15948 0.37589,-0.35681 0.57226,-0.57422 0.19636,-0.2174 0.39189,-0.45538 0.54492,-0.66406 0.15313,-0.20881 0.26601,-0.3897 0.36524,-0.55273 0.0993,-0.16317 0.17214,-0.28873 0.19531,-0.42774 0.0231,-0.13883 1.7e-4,-0.32785 -0.0352,-0.54687 -0.0354,-0.21955 -0.0846,-0.44395 -0.16796,-0.5586 -0.0833,-0.11456 -0.2374,-0.17919 -0.33008,-0.21484 -0.001,-5.2e-4 -0.0726,-0.0109 -0.13867,-0.008 z"
       transform="matrix(0.26458333,0,0,0.26458333,-10.74311,-33.085149)" />
    <path
       style="font-variation-settings:normal;display:inline;fill:none;fill-opacity:1;fill-rule:nonzero;stroke:#000000;stroke-width:1.3;stroke-linecap:round;stroke-linejoin:round;stroke-miterlimit:4;stroke-dasharray:none;stroke-dashoffset:0;stroke-opacity:1;paint-order:stroke fill markers"
       d="m 461.32013,469.21099 c -0.66689,-0.76118 -1.33699,-1.52603 -1.91728,-2.17486 -0.5803,-0.64883 -1.07622,-1.18776 -1.56968,-1.59414 -0.49345,-0.40638 -1.01157,-0.69704 -1.49963,-0.86743 -0.48806,-0.17039 -0.97962,-0.23316 -1.42416,-0.19124 -0.44453,0.0419 -0.93567,0.2138 -1.16381,0.5401 -0.22814,0.3263 -0.29842,1.06255 -0.17466,1.46109 0.12376,0.39854 0.44553,0.70042 0.78601,0.96862 0.34048,0.26821 0.71856,0.52016 1.0883,0.74885 0.36974,0.22868 0.73441,0.43619 1.0985,0.64337"
       id="path123"
       inkscape:path-effect="#path-effect145"
       inkscape:original-d="m 461.32013,469.21099 c -0.71234,-0.72136 -1.40143,-1.46957 -2.00316,-2.2864 -0.50127,-0.53098 -1.0519,-1.01957 -1.48321,-1.61182 -0.42111,-0.40716 -0.98611,-0.61426 -1.51096,-0.84765 -0.46614,-0.14848 -0.95698,-0.21692 -1.44476,-0.18449 -0.46555,-0.005 -0.96735,0.13642 -1.31194,0.45914 -0.43237,0.47333 -0.47278,1.21243 -0.16843,1.76464 0.19942,0.38265 0.58143,0.62032 0.92279,0.86574 0.39255,0.22777 0.7843,0.4592 1.13084,0.75358 0.36366,0.20693 0.72833,0.41444 1.09242,0.62162"
       sodipodi:nodetypes="cccccccccc"
       transform="matrix(0.26458333,0,0,0.26458333,-10.74311,-32.85078)" />
    <path
       style="font-variation-settings:normal;display:inline;vector-effect:none;fill:none;fill-opacity:1;stroke:#000000;stroke-width:1.3;stroke-linecap:round;stroke-linejoin:round;stroke-miterlimit:4;stroke-dasharray:none;stroke-dashoffset:0;stroke-opacity:1;-inkscape-stroke:none;paint-order:stroke fill markers;stop-color:#000000"
       d="m 568.59912,467.98631 c 0.70804,-0.42622 1.41605,-0.85242 2.19614,-1.29565 0.78009,-0.44324 1.63269,-0.90374 2.37219,-1.28806 0.7395,-0.38432 1.36894,-0.69396 1.60208,-0.64588 0.23314,0.0481 0.071,0.45337 -0.22029,0.88273 -0.29131,0.42937 -0.71179,0.88278 -1.37622,1.61317 -0.66444,0.73039 -1.63046,1.80167 -2.55917,2.83158"
       id="path124"
       inkscape:path-effect="#path-effect147"
       inkscape:original-d="m 568.59912,467.98631 c 0.69614,-0.44598 1.39634,-0.88517 2.12396,-1.27856 0.83206,-0.49774 1.71028,-0.91082 2.55711,-1.38114 0.59165,-0.3797 1.25132,-0.62788 1.88459,-0.9271 -0.16211,0.40529 -0.32423,0.81058 -0.48634,1.21587 -0.44622,0.42959 -0.86977,0.88016 -1.26146,1.36025 -0.9084,1.00738 -1.87442,2.07866 -2.80313,3.10857"
       transform="matrix(0.26458333,0,0,0.26458333,-10.74311,-32.85078)"
       sodipodi:nodetypes="ccccccc" />
    <path
       id="path161"
       style="color:#000000;display:inline;opacity:0.615165;fill:#000000;stroke-width:0.948431;stroke-linecap:round;stroke-linejoin:round;stroke-dasharray:none;paint-order:stroke fill markers;filter:url(#filter169)"
       d="m 88.279589,142.1075 c -6.029828,0 -8.587596,5.29836 -8.908801,6.01379 l -11.452597,20.0132 c -0.463881,0.65558 -3.758966,5.62827 -0.775682,10.84249 2.974861,5.19951 8.919504,4.84353 9.748706,4.76748 h 22.931283 c 0.856442,0.0775 6.626862,0.41704 9.593172,-4.76748 2.98328,-5.21422 -0.3118,-10.18691 -0.77569,-10.84249 L 97.173339,148.09621 c -0.350752,-0.7747 -2.905139,-5.98871 -8.89375,-5.98871 z"
       transform="matrix(0.51497764,0,0,0.51497764,79.472622,38.305052)" />
    <g
       id="g155"
       transform="matrix(0.1362545,0,0,0.1362545,19.884602,65.874889)"
       style="display:inline">
      <g
         id="g104"
         style="filter:url(#filter105)"
         transform="matrix(3.7795276,0,0,3.7795276,433.87196,-208.1022)">
        <path
           id="path16-5"
           style="fill:none;fill-opacity:1;stroke:url(#linearGradient19);stroke-width:7.197;stroke-linecap:round;stroke-linejoin:round;stroke-dasharray:none;paint-order:stroke fill markers"
           inkscape:transform-center-y="-6.7253698"
           d="m 76.735465,180.14658 c 0,0 -4.545617,0.40652 -6.469557,-2.95618 -1.92394,-3.36268 0.69773,-7.13184 0.69773,-7.13184 l 11.543634,-20.17609 c 0,0 1.923937,-4.17568 5.771827,-4.17568 3.847887,0 5.771817,4.17568 5.771817,4.17568 l 11.543574,20.17609 c 0,0 2.62167,3.76918 0.69773,7.13186 -1.92395,3.36269 -6.469547,2.95619 -6.469547,2.95619 z"
           sodipodi:nodetypes="csccsccscc"
           inkscape:transform-center-x="1.3540966e-06" />
        <path
           id="use4"
           style="fill:none;stroke:url(#linearGradient5);stroke-width:1.497;stroke-linecap:round;stroke-linejoin:round;stroke-dasharray:none;paint-order:stroke fill markers"
           inkscape:transform-center-y="-6.7253698"
           d="m 76.735465,180.14658 c 0,0 -4.545617,0.40652 -6.469557,-2.95618 -1.92394,-3.36268 0.69773,-7.13184 0.69773,-7.13184 l 11.543634,-20.17609 c 0,0 1.923937,-4.17568 5.771827,-4.17568 3.847887,0 5.771817,4.17568 5.771817,4.17568 l 11.543574,20.17609 c 0,0 2.62167,3.76918 0.69773,7.13186 -1.92395,3.36269 -6.469547,2.95619 -6.469547,2.95619 z"
           sodipodi:nodetypes="csccsccscc"
           inkscape:transform-center-x="1.3540966e-06" />
        <path
           id="path4"
           style="fill:url(#linearGradient12);stroke:none;stroke-width:4.99744;stroke-linecap:round;stroke-linejoin:round;paint-order:stroke fill markers"
           inkscape:transform-center-y="-6.7253698"
           d="m 76.735463,180.14658 c 0,0 -4.545612,0.40652 -6.469555,-2.95618 -1.923943,-3.36268 0.697733,-7.13184 0.697733,-7.13184 l 11.543628,-20.17609 c 0,0 1.923943,-4.17568 5.771828,-4.17568 3.847889,0 5.771819,4.17568 5.771819,4.17568 l 11.543574,20.17609 c 0,0 2.62167,3.76918 0.69773,7.13186 -1.92395,3.36269 -6.469547,2.95619 -6.469547,2.95619 z"
           sodipodi:nodetypes="csccsccscc"
           inkscape:transform-center-x="1.3540966e-06" />
      </g>
      <path
         id="path66"
         style="color:#000000;mix-blend-mode:normal;fill:#eaeaea;fill-opacity:1;stroke-width:3.77953;stroke-linecap:round;stroke-linejoin:round;stroke-miterlimit:9;-inkscape-stroke:none;paint-order:stroke fill markers"
         d="m 767.86745,368.10334 c -12.90102,0 -18.34375,12.83788 -18.34375,12.83788 a 5.6995087,5.6995087 0 0 0 2.78906,7.56643 5.6995087,5.6995087 0 0 0 7.56641,-2.79103 c 0,0 3.33395,-6.21483 7.98828,-6.21483 4.65434,0 7.98633,6.21483 7.98633,6.21483 a 5.7000787,5.7000787 0 0 0 0.22851,0.44337 l 3.29296,5.74999 3.29297,5.7578 0.91407,1.59769 -1.28516,0.73436 a 2.9588919,2.9588919 0 0 0 -0.16993,5.0293 l 14.30664,9.52732 a 2.3937938,2.3937938 0 0 0 3.7168,-2.12693 l -0.96289,-17.16015 a 2.9588919,2.9588919 0 0 0 -4.42383,-2.40234 l -1.28906,0.73825 -0.91601,-1.59961 -3.28321,-5.7578 -3.17969,-5.5547 c -0.58122,-1.28081 -6.04968,-12.58983 -18.22851,-12.58983 z m 39.02148,55.57228 a 5.6995087,5.6995087 0 0 0 -2.77734,1.00195 5.6995087,5.6995087 0 0 0 -1.42383,7.92771 c 0,0 3.68912,6.04729 1.32031,10.18753 -2.36889,4.14032 -9.30078,3.89847 -9.30078,3.89843 a 5.7000787,5.7000787 0 0 0 -0.50976,-0.0227 h -6.58399 -6.58398 -1.79297 v -1.48245 a 2.9588919,2.9588919 0 0 0 -4.28125,-2.64646 l -15.37305,7.68552 a 2.3937938,2.3937938 0 0 0 0,4.28322 l 15.37305,7.68749 a 2.9588919,2.9588919 0 0 0 4.28125,-2.64647 v -1.48244 h 1.79297 6.58398 6.37891 c 1.54069,0.13606 13.90768,0.88996 19.916,-9.61134 6.40879,-11.20139 -1.8613,-22.35349 -1.8613,-22.35349 a 5.6995087,5.6995087 0 0 0 -5.15822,-2.42653 z m -61.97851,-25.94336 a 2.3937938,2.3937938 0 0 0 -1.14258,0.39451 l -14.30664,9.52539 a 2.9588919,2.9588919 0 0 0 0.16993,5.03127 l 1.28711,0.73633 -0.91211,1.59568 -3.29297,5.75781 -3.18164,5.55666 c -0.8134,1.1568 -7.75135,11.55726 -1.70508,22.12497 6.40884,11.20143 20.21094,9.58988 20.21094,9.58988 a 5.6995087,5.6995087 0 0 0 5.17578,-6.18751 5.6995087,5.6995087 0 0 0 -6.1875,-5.16601 c 0,0 -6.93195,0.24189 -9.30079,-3.89843 -2.36883,-4.14024 1.32227,-10.18753 1.32227,-10.18753 a 5.7000787,5.7000787 0 0 0 0.26563,-0.4199 l 3.29296,-5.75781 3.29102,-5.75002 0.91406,-1.59765 1.28711,0.73633 a 2.9588919,2.9588919 0 0 0 4.42383,-2.40234 l 0.96289,-17.16212 a 2.3937938,2.3937938 0 0 0 -2.57422,-2.51951 z" />
      <path
         id="rect105"
         style="font-variation-settings:normal;opacity:0.75;fill:#000000;fill-opacity:1;stroke:none;stroke-width:4.997;stroke-linecap:square;stroke-linejoin:miter;stroke-miterlimit:9;stroke-dasharray:none;stroke-dashoffset:0;stroke-opacity:1;paint-order:markers stroke fill;filter:url(#filter108)"
         d="m 11.380701,140.30757 v 48.75103 h 44.334761 v -48.75103 z m 24.072432,12.48554 c 3.222314,0 4.669179,2.99218 4.822962,3.33106 l 0.841292,1.46968 0.868681,1.52342 0.242362,0.42323 0.341065,-0.19533 a 0.78287347,0.78287347 0 0 1 1.170471,0.63562 l 0.254765,4.54029 a 0.63335793,0.63335793 0 0 1 -0.983403,0.56275 l -3.785299,-2.52077 a 0.78287347,0.78287347 0 0 1 0.04496,-1.33067 l 0.340031,-0.1943 -0.241846,-0.42272 -0.871264,-1.52342 -0.871265,-1.52135 a 1.5081458,1.5081458 0 0 1 -0.06046,-0.11731 c 0,0 -0.88159,-1.64434 -2.113049,-1.64434 -1.231458,0 -2.113566,1.64434 -2.113566,1.64434 a 1.507995,1.507995 0 0 1 -2.001945,0.73846 1.507995,1.507995 0 0 1 -0.737939,-2.00195 c 0,0 1.440059,-3.39669 4.85345,-3.39669 z m -6.074048,7.83932 a 0.63335793,0.63335793 0 0 1 0.681096,0.66662 l -0.254765,4.54081 a 0.78287347,0.78287347 0 0 1 -1.170471,0.63562 l -0.340548,-0.19482 -0.241846,0.42271 -0.870748,1.52136 -0.871264,1.52342 a 1.5081458,1.5081458 0 0 1 -0.07028,0.1111 c 0,0 -0.976603,1.60001 -0.34985,2.69544 0.626754,1.09546 2.460832,1.03147 2.460832,1.03147 a 1.507995,1.507995 0 0 1 1.637109,1.36684 1.507995,1.507995 0 0 1 -1.369425,1.63711 c 0,0 -3.651807,0.42639 -5.347477,-2.53732 -1.59974,-2.79603 0.235924,-5.54783 0.451135,-5.8539 l 0.841809,-1.4702 0.871265,-1.52342 0.241329,-0.42219 -0.340548,-0.19482 a 0.78287347,0.78287347 0 0 1 -0.04496,-1.33119 l 3.785299,-2.52026 a 0.63335793,0.63335793 0 0 1 0.302308,-0.10438 z m 16.398483,6.86418 a 1.507995,1.507995 0 0 1 1.364774,0.64233 c 0,0 2.188135,2.95067 0.492477,5.91437 -1.589701,2.77847 -4.861806,2.579 -5.269446,2.543 h -1.687753 -1.742012 -0.47439 v 0.39222 a 0.78287347,0.78287347 0 0 1 -1.132747,0.70022 l -4.067452,-2.03399 a 0.63335793,0.63335793 0 0 1 0,-1.13326 l 4.067452,-2.03347 a 0.78287347,0.78287347 0 0 1 1.132747,0.70022 v 0.39222 h 0.47439 1.742012 1.742013 a 1.5081458,1.5081458 0 0 1 0.134875,0.006 c 0,1e-5 1.834063,0.064 2.460832,-1.03147 0.626747,-1.09543 -0.349333,-2.69544 -0.349333,-2.69544 a 1.507995,1.507995 0 0 1 0.376722,-2.09754 1.507995,1.507995 0 0 1 0.734839,-0.2651 z"
         clip-path="url(#clipPath108)"
         transform="matrix(3.7795276,0,0,3.7795276,633.87197,-208.1022)" />
      <path
         id="path118-2"
         style="color:#000000;opacity:0.475;fill:#f9f9f9;fill-opacity:1;stroke-width:3.77953;stroke-linecap:round;stroke-linejoin:round;stroke-miterlimit:9;-inkscape-stroke:none;paint-order:stroke fill markers"
         d="m 767.86806,379.50133 c -4.65433,0 -7.98828,6.21483 -7.98828,6.21483 a 5.6995087,5.6995087 0 0 1 -7.56641,2.79103 5.6995087,5.6995087 0 0 1 -3.25195,-5.02734 5.6995087,5.6995087 0 0 0 3.25195,5.65036 5.6995087,5.6995087 0 0 0 7.56641,-2.79099 c 0,0 3.33395,-6.21487 7.98828,-6.21487 4.65433,0 7.98633,6.21487 7.98633,6.21487 a 5.7000787,5.7000787 0 0 0 0.22851,0.44334 l 3.29296,5.75002 3.29297,5.75781 0.64453,1.1289 0.26952,-0.1542 -0.91406,-1.59768 -3.29297,-5.75781 -3.29297,-5.74999 a 5.7000787,5.7000787 0 0 1 -0.22851,-0.44337 c 0,0 -3.33199,-6.21483 -7.98633,-6.21483 z m -20.40235,21.08984 -0.94335,16.82227 a 2.9588919,2.9588919 0 0 1 -4.42384,2.40234 l -1.2871,-0.73633 -0.91407,1.59765 -3.29101,5.75002 -3.29297,5.75781 a 5.7000787,5.7000787 0 0 1 -0.26563,0.4199 c 0,0 -2.21213,3.64388 -2.0996,7.21096 0.13553,-3.35607 2.0996,-6.5879 2.0996,-6.5879 a 5.7000787,5.7000787 0 0 0 0.26563,-0.41991 l 3.29297,-5.75785 3.29101,-5.74998 0.91407,-1.59764 1.2871,0.73632 a 2.9588919,2.9588919 0 0 0 4.42384,-2.40234 l 0.96288,-17.16212 a 2.3937938,2.3937938 0 0 0 -0.0196,-0.28308 z m 33.42578,2.23045 a 2.9588919,2.9588919 0 0 0 1.23633,2.83008 l 14.30664,9.52735 a 2.3937938,2.3937938 0 0 0 3.7168,-2.12696 l -0.0253,-0.43552 a 2.3937938,2.3937938 0 0 1 -3.69141,1.93943 l -14.30664,-9.52732 a 2.9588919,2.9588919 0 0 1 -1.23633,-2.20706 z m -52.66796,7.66016 a 2.9588919,2.9588919 0 0 0 1.4082,2.82422 l 1.01953,0.58204 0.26759,-0.46873 -1.2871,-0.73633 a 2.9588919,2.9588919 0 0 1 -1.40821,-2.2012 z m 73.54687,18.45899 a 5.6995087,5.6995087 0 0 0 0.91797,4.28712 c 0,0 1.96476,3.23557 2.09766,6.59376 0.11565,-3.56893 -2.09766,-7.21682 -2.09766,-7.21682 a 5.6995087,5.6995087 0 0 1 -0.91797,-3.66406 z m -82.37891,10.37499 c -0.093,3.04161 0.50747,6.39182 2.43555,9.76173 6.40883,11.20142 20.21094,9.58987 20.21094,9.58987 a 5.6995087,5.6995087 0 0 0 5.17969,-5.92385 5.6995087,5.6995087 0 0 1 -5.17969,5.30079 c 0,0 -13.80211,1.61155 -20.21094,-9.58987 -1.79821,-3.1429 -2.43161,-6.26407 -2.43555,-9.13867 z m 96.92773,0.93362 c -0.12737,2.61732 -0.81033,5.41081 -2.41013,8.20702 -6.00833,10.5013 -18.37534,9.7474 -19.91603,9.61133 h -6.37891 -6.58398 -1.79297 v 0.62109 h 1.79297 6.58398 6.37891 c 1.54069,0.13607 13.9077,0.88997 19.91603,-9.61133 1.72868,-3.02143 2.36708,-6.03175 2.41013,-8.82811 z m -57.97265,12.42773 a 2.3937938,2.3937938 0 0 0 1.23633,2.4531 l 15.37305,7.68752 a 2.9588919,2.9588919 0 0 0 4.28125,-2.6465 v -0.62109 a 2.9588919,2.9588919 0 0 1 -4.28125,2.6465 l -15.37305,-7.68752 a 2.3937938,2.3937938 0 0 1 -1.23633,-1.83201 z" />
    </g>
    <g
       id="g157"
       transform="matrix(0.02957871,-0.26292478,0.26292478,0.02957871,-45.307283,184.49569)"
       style="display:inline">
      <path
         style="font-variation-settings:normal;opacity:1;vector-effect:none;fill:#f5f4ce;fill-opacity:1;stroke:none;stroke-width:1.3;stroke-linecap:round;stroke-linejoin:round;stroke-miterlimit:4;stroke-dasharray:none;stroke-dashoffset:0;stroke-opacity:1;-inkscape-stroke:none;paint-order:stroke fill markers;filter:url(#filter20)"
         d="m 452.81798,565.94459 c -1.02012,1.54715 -2.04036,3.09448 -3.08675,4.75289 -1.04639,1.65841 -2.11899,3.42799 -2.93604,5.03988 -0.81704,1.61189 -1.37852,3.06609 -1.69653,4.46295 -0.31801,1.39687 -0.39255,2.7364 -0.21982,3.4448 0.17273,0.7084 0.59272,0.78566 1.20423,0.74345 0.61151,-0.0422 1.41453,-0.2039 2.34114,-0.53796 0.92662,-0.33406 1.97683,-0.84048 2.8257,-1.29312 0.84888,-0.45263 1.49641,-0.85147 2.32403,-1.62271 0.82763,-0.77124 1.83533,-1.91488 2.74573,-2.99054 0.91039,-1.07566 1.72347,-2.08333 2.48996,-3.01535 0.76648,-0.93203 1.48604,-1.78802 2.20588,-2.64435"
         id="path125"
         inkscape:path-effect="#path-effect149"
         inkscape:original-d="m 452.81798,565.94459 c -1.02012,1.54715 -2.04035,3.09448 -3.06053,4.64171 -1.07261,1.76959 -2.14521,3.53917 -3.21782,5.30875 -0.56148,1.4542 -1.12296,2.9084 -1.68444,4.3626 -0.0745,1.33953 -0.14908,2.67906 -0.22362,4.01859 0.41999,0.0773 0.83999,0.15453 1.25999,0.2318 0.80302,-0.16169 1.60604,-0.32338 2.40906,-0.48507 1.05021,-0.50642 2.10042,-1.01285 3.15063,-1.51928 0.64754,-0.39884 1.29507,-0.79768 1.94261,-1.19652 1.00771,-1.14364 2.01541,-2.28728 3.02312,-3.43092 0.81308,-1.00768 1.62616,-2.01535 2.43925,-3.02303 0.71988,-0.85637 1.43944,-1.71236 2.15928,-2.56869"
         sodipodi:nodetypes="cssssssssssc"
         transform="translate(-140)" />
      <path
         style="font-variation-settings:normal;opacity:1;fill:none;fill-opacity:1;stroke:#000000;stroke-width:2.15;stroke-linecap:round;stroke-linejoin:round;stroke-miterlimit:4;stroke-dasharray:none;stroke-dashoffset:0;stroke-opacity:1;paint-order:stroke fill markers"
         d="m 454.0142,563.89944 c -1.57923,2.26893 -3.15863,4.5381 -4.48459,6.52735 -1.32597,1.98925 -2.39857,3.69868 -3.16549,5.28049 -0.76692,1.58182 -1.22815,3.03602 -1.46597,4.44291 -0.23781,1.40689 -0.25221,2.76647 -0.0494,3.48489 0.2028,0.71843 0.62279,0.79569 1.25435,0.88381 0.63156,0.0881 1.47468,0.18707 2.4013,-0.14699 0.92661,-0.33406 1.93672,-1.10113 2.76554,-1.68409 0.82883,-0.58296 1.47636,-0.9818 2.30398,-1.75304 0.82763,-0.77124 1.83533,-1.91488 2.74573,-2.99054 0.91039,-1.07566 1.72347,-2.08333 2.45282,-3.02014 0.72934,-0.93682 1.37493,-1.80276 1.93418,-2.57173 0.55925,-0.76898 1.03213,-1.44094 1.50506,-2.11298"
         id="path126"
         inkscape:path-effect="#path-effect151"
         inkscape:original-d="m 454.0142,563.89944 c -1.57923,2.26893 -3.15863,4.5381 -4.73795,6.80716 -1.07261,1.70944 -2.14521,3.41887 -3.21782,5.1283 -0.46123,1.4542 -0.92246,2.9084 -1.38369,4.3626 -0.0144,1.35958 -0.0288,2.71916 -0.0432,4.07874 0.41999,0.0773 0.83999,0.15453 1.25999,0.2318 0.84312,0.099 1.68624,0.19792 2.52936,0.29688 1.01011,-0.76708 2.02022,-1.53415 3.03033,-2.30123 0.64754,-0.39884 1.29507,-0.79768 1.94261,-1.19652 1.00771,-1.14364 2.01541,-2.28728 3.02312,-3.43092 0.81308,-1.00768 1.62616,-2.01535 2.43925,-3.02303 0.6456,-0.86595 1.29119,-1.73189 1.93679,-2.59784 0.4729,-0.672 0.94578,-1.34396 1.41871,-2.016"
         sodipodi:nodetypes="csssssssssssc"
         transform="translate(-140)" />
    </g>
    <g
       id="g158"
       transform="matrix(-0.02957871,-0.26292478,-0.26292478,0.02957871,294.63958,184.49569)"
       style="display:inline">
      <path
         style="font-variation-settings:normal;opacity:1;vector-effect:none;fill:#f5f4ce;fill-opacity:1;stroke:none;stroke-width:1.3;stroke-linecap:round;stroke-linejoin:round;stroke-miterlimit:4;stroke-dasharray:none;stroke-dashoffset:0;stroke-opacity:1;-inkscape-stroke:none;paint-order:stroke fill markers;filter:url(#filter20)"
         d="m 452.81798,565.94459 c -1.02012,1.54715 -2.04036,3.09448 -3.08675,4.75289 -1.04639,1.65841 -2.11899,3.42799 -2.93604,5.03988 -0.81704,1.61189 -1.37852,3.06609 -1.69653,4.46295 -0.31801,1.39687 -0.39255,2.7364 -0.21982,3.4448 0.17273,0.7084 0.59272,0.78566 1.20423,0.74345 0.61151,-0.0422 1.41453,-0.2039 2.34114,-0.53796 0.92662,-0.33406 1.97683,-0.84048 2.8257,-1.29312 0.84888,-0.45263 1.49641,-0.85147 2.32403,-1.62271 0.82763,-0.77124 1.83533,-1.91488 2.74573,-2.99054 0.91039,-1.07566 1.72347,-2.08333 2.48996,-3.01535 0.76648,-0.93203 1.48604,-1.78802 2.20588,-2.64435"
         id="path157"
         inkscape:path-effect="#path-effect159"
         inkscape:original-d="m 452.81798,565.94459 c -1.02012,1.54715 -2.04035,3.09448 -3.06053,4.64171 -1.07261,1.76959 -2.14521,3.53917 -3.21782,5.30875 -0.56148,1.4542 -1.12296,2.9084 -1.68444,4.3626 -0.0745,1.33953 -0.14908,2.67906 -0.22362,4.01859 0.41999,0.0773 0.83999,0.15453 1.25999,0.2318 0.80302,-0.16169 1.60604,-0.32338 2.40906,-0.48507 1.05021,-0.50642 2.10042,-1.01285 3.15063,-1.51928 0.64754,-0.39884 1.29507,-0.79768 1.94261,-1.19652 1.00771,-1.14364 2.01541,-2.28728 3.02312,-3.43092 0.81308,-1.00768 1.62616,-2.01535 2.43925,-3.02303 0.71988,-0.85637 1.43944,-1.71236 2.15928,-2.56869"
         sodipodi:nodetypes="cssssssssssc"
         transform="translate(-140)" />
      <path
         style="font-variation-settings:normal;opacity:1;fill:none;fill-opacity:1;stroke:#000000;stroke-width:2.15;stroke-linecap:round;stroke-linejoin:round;stroke-miterlimit:4;stroke-dasharray:none;stroke-dashoffset:0;stroke-opacity:1;paint-order:stroke fill markers"
         d="m 454.0142,563.89944 c -1.57923,2.26893 -3.15863,4.5381 -4.48459,6.52735 -1.32597,1.98925 -2.39857,3.69868 -3.16549,5.28049 -0.76692,1.58182 -1.22815,3.03602 -1.46597,4.44291 -0.23781,1.40689 -0.25221,2.76647 -0.0494,3.48489 0.2028,0.71843 0.62279,0.79569 1.25435,0.88381 0.63156,0.0881 1.47468,0.18707 2.4013,-0.14699 0.92661,-0.33406 1.93672,-1.10113 2.76554,-1.68409 0.82883,-0.58296 1.47636,-0.9818 2.30398,-1.75304 0.82763,-0.77124 1.83533,-1.91488 2.74573,-2.99054 0.91039,-1.07566 1.72347,-2.08333 2.45282,-3.02014 0.72934,-0.93682 1.37493,-1.80276 1.93418,-2.57173 0.55925,-0.76898 1.03213,-1.44094 1.50506,-2.11298"
         id="path158"
         inkscape:path-effect="#path-effect161"
         inkscape:original-d="m 454.0142,563.89944 c -1.57923,2.26893 -3.15863,4.5381 -4.73795,6.80716 -1.07261,1.70944 -2.14521,3.41887 -3.21782,5.1283 -0.46123,1.4542 -0.92246,2.9084 -1.38369,4.3626 -0.0144,1.35958 -0.0288,2.71916 -0.0432,4.07874 0.41999,0.0773 0.83999,0.15453 1.25999,0.2318 0.84312,0.099 1.68624,0.19792 2.52936,0.29688 1.01011,-0.76708 2.02022,-1.53415 3.03033,-2.30123 0.64754,-0.39884 1.29507,-0.79768 1.94261,-1.19652 1.00771,-1.14364 2.01541,-2.28728 3.02312,-3.43092 0.81308,-1.00768 1.62616,-2.01535 2.43925,-3.02303 0.6456,-0.86595 1.29119,-1.73189 1.93679,-2.59784 0.4729,-0.672 0.94578,-1.34396 1.41871,-2.016"
         sodipodi:nodetypes="csssssssssssc"
         transform="translate(-140)" />
    </g>
    <text
       xml:space="preserve"
       style="font-style:italic;font-variant:normal;font-weight:normal;font-stretch:normal;font-size:16.5125px;font-family:Rouna;-inkscape-font-specification:'Rouna Italic';opacity:1;fill:#000000;fill-opacity:1;stroke-width:0.714422;stroke-linecap:square;stroke-miterlimit:9;paint-order:markers stroke fill"
       x="138.86259"
       y="137.16847"
       id="text1"><tspan
         sodipodi:role="line"
         id="tspan1"
         style="font-style:italic;font-variant:normal;font-weight:bold;font-stretch:normal;font-size:16.5125px;font-family:Rouna;-inkscape-font-specification:'Rouna Bold Italic';fill:#000000;fill-opacity:1;stroke-width:0.714422"
         x="138.86259"
         y="137.16847">Redo</tspan></text>
  </g>
</svg>
